<?xml version="1.0" encoding="UTF-8" standalone="no"?>
<!-- Created with Inkscape (http://www.inkscape.org/) -->
<svg id="svg2" xmlns:rdf="http://www.w3.org/1999/02/22-rdf-syntax-ns#" xmlns="http://www.w3.org/2000/svg" viewBox="0 0 155.27 273.15" version="1.1" xmlns:cc="http://creativecommons.org/ns#" xmlns:dc="http://purl.org/dc/elements/1.1/">
	<metadata id="metadata7">
		<rdf:RDF>
			<cc:Work rdf:about="">
				<dc:format>image/svg+xml</dc:format>
				<dc:type rdf:resource="http://purl.org/dc/dcmitype/StillImage"/>
				<dc:title/>
			</cc:Work>
		</rdf:RDF>
	</metadata>
	<g id="layer1" transform="translate(2.3390152,-749.56519)">
		<g id="gFoot" stroke="#000" transform="translate(-54.666667,-22.666667)">
			<path id="pFoot" stroke-linejoin="miter" d="m155.04,912.64s34.183-39.027,17.198-59.41c-7.8171-9.3805-30.59-17.678-47.224-16.507-16.091,1.1325-39.033,7.6408-42.994,22.209-8.3564,30.74,10.911,64.627,17.979,96.816,3.8408,17.493-18.439,31.153-5.9317,53.823,11.466,20.783,49.176,29.422,59.41,0,6.2536-17.979-1.0811-22.243-3.4779-33.062-2.2157-10.002-9.994-29.062-9.994-29.062s30.669,37.891,19.726,62.123c-10.944,24.233-39.153,37.587-65.663,10.162-22.669-23.451,1.3416-39.128,0-60.191-1.436-22.546-32.05-79.734-16.416-106.31,15.634-26.578,50.512-24.677,75.044-19.543,33.613,7.0354,35.177,35.177,25.796,54.719-3.3996,7.0824-23.451,24.233-23.451,24.233z" stroke-linecap="butt" stroke-width="0.78170556px" fill="#000"/>
			<g id="gToes" stroke-dasharray="none" stroke-miterlimit="4" fill="none">
				<path id="pBigToe" style="marker-start:none;" d="m190,65.333c0,12.15-6.7157,22-15,22s-15-9.8497-15-22,6.7157-22,15-22,15,9.8497,15,22z" transform="matrix(0.98485997,0.17335179,-0.17335179,0.98485997,19.308489,712.3481)" stroke-width="4"/>
				<path id="pIndexToe" style="marker-start:none;" d="m190,65.333c0,12.15-6.7157,22-15,22s-15-9.8497-15-22,6.7157-22,15-22,15,9.8497,15,22z" transform="matrix(0.85934885,0.05303446,-0.05303446,0.85934885,0.37757827,737.60368)" stroke-width="4.35548258"/>
				<path id="pMidToe" style="marker-start:none;" d="m190,65.333c0,12.15-6.7157,22-15,22s-15-9.8497-15-22,6.7157-22,15-22,15,9.8497,15,22z" transform="matrix(0.74940897,-0.03241743,0.03241743,0.74940897,-16.526059,759.7405)" stroke-width="4.50095415"/>
				<path id="pRingToe" style="marker-start:none;" d="m190,65.333c0,12.15-6.7157,22-15,22s-15-9.8497-15-22,6.7157-22,15-22,15,9.8497,15,22z" transform="matrix(0.65603373,-0.11526702,0.11526702,0.65603373,-30.753323,789.00637)" stroke-width="4.68523788"/>
				<path id="pPinkyToe" style="marker-start:none;" d="m190,65.333c0,12.15-6.7157,22-15,22s-15-9.8497-15-22,6.7157-22,15-22,15,9.8497,15,22z" transform="matrix(0.53080858,-0.21124712,0.21124712,0.53080858,-33.642602,830.94676)" stroke-width="5.25118637"/>
			</g>
		</g>
	</g>
</svg>
