<?xml version="1.0" encoding="UTF-8" standalone="no"?>
<!-- Created with Inkscape (http://www.inkscape.org/) -->
<svg id="svg2" xmlns:rdf="http://www.w3.org/1999/02/22-rdf-syntax-ns#" xmlns="http://www.w3.org/2000/svg" viewBox="0 0 32 32" version="1.1" xmlns:cc="http://creativecommons.org/ns#" xmlns:dc="http://purl.org/dc/elements/1.1/">
	<metadata id="metadata7">
		<rdf:RDF>
			<cc:Work rdf:about="">
				<dc:format>image/svg+xml</dc:format>
				<dc:type rdf:resource="http://purl.org/dc/dcmitype/StillImage"/>
				<dc:title/>
			</cc:Work>
		</rdf:RDF>
	</metadata>
	<g id="layer1" stroke-linejoin="miter" transform="translate(0,-1020.3622)" stroke="#000" stroke-linecap="butt" stroke-dasharray="none" stroke-miterlimit="4" fill="#000">
		<path id="pFrontBottom" d="m1.3591,10.738,0,15.973c0,1.1111,0,2.5833,2.4839,2.5833l13.641-0.04444v-9.6056h-2.4666l-0.017,7.0776h-11.157l-2E-7-15.984c0-2.3565-2.4839-2.3565-2.4839-0.000004z" transform="translate(0,1020.3622)" stroke-width="0.1"/>
		<path id="pTop" d="M15,12.807,15,7.25h-9.8345c-8.1243,0-1.2347-6.5543,4.4329-6.6005h15.027v12.157h-2.625v-9.7821h-12.422c-3.277,0-5.7133,1.875-4.4218,1.875h12.319v7.9071z" transform="translate(0,1020.3622)" stroke-width="0.1"/>
		<path id="pBackBottomCorner" d="m20.578,23.156c-2.2667,0-2.2667,2.5778,0,2.5778h4.0271v-6.0889h-2.6049v3.5111z" transform="translate(0,1020.3622)" stroke-width="0.10000000000000001"/>
		<path id="pPlus" d="m24.605,1035.2,0,2.3556-3.6716,0,0,3.1556-2.4,0,0-3.0667-3.5163,0,0-2.4445,3.5163,0,0-3.2177,2.4,0,0,3.2177z" stroke-width="0.1"/>
	</g>
</svg>
