<?xml version="1.0" encoding="UTF-8"?>
<svg xmlns="http://www.w3.org/2000/svg" xmlns:xlink="http://www.w3.org/1999/xlink" width="412pt" height="413pt" viewBox="0 0 412 413" version="1.1">
<g id="surface0">
<path style="fill-rule:nonzero;fill:rgb(0%,0%,0%);fill-opacity:1;stroke-width:2;stroke-linecap:round;stroke-linejoin:round;stroke:rgb(0%,0%,0%);stroke-opacity:1;stroke-miterlimit:10;" d="M 212.663728 16.692698 C 324.62727 16.692698 415.387687 107.734365 415.387687 220.036448 C 415.387687 332.338531 324.62727 423.37499 212.663728 423.37499 C 100.705395 423.37499 9.93977 332.338531 9.93977 220.036448 C 9.93977 107.734365 100.705395 16.692698 212.663728 16.692698 Z M 212.663728 16.692698 " transform="matrix(0.75,0,0,0.75,-4.829827,-9.894524)"/>
<path style="fill-rule:nonzero;fill:rgb(87.843137%,87.843137%,87.843137%);fill-opacity:1;stroke-width:2;stroke-linecap:round;stroke-linejoin:round;stroke:rgb(0%,0%,0%);stroke-opacity:1;stroke-miterlimit:10;" d="M 195.569978 49.21874 C 286.247062 49.21874 359.757478 119.65624 359.757478 206.541656 C 359.757478 293.427073 286.247062 363.859365 195.569978 363.859365 C 104.887687 363.859365 31.37727 293.427073 31.37727 206.541656 C 31.37727 119.65624 104.887687 49.21874 195.569978 49.21874 Z M 195.569978 49.21874 " transform="matrix(0.75,0,0,0.75,-4.829827,-9.894524)"/>
<path style="fill-rule:nonzero;fill:rgb(0%,0%,0%);fill-opacity:1;stroke-width:2;stroke-linecap:round;stroke-linejoin:round;stroke:rgb(0%,0%,0%);stroke-opacity:1;stroke-miterlimit:10;" d="M 236.476228 94.541656 C 306.517895 94.541656 363.299145 148.49999 363.299145 215.057281 C 363.299145 281.614573 306.517895 335.572906 236.476228 335.572906 C 166.434562 335.572906 109.653312 281.614573 109.653312 215.057281 C 109.653312 148.49999 166.434562 94.541656 236.476228 94.541656 Z M 236.476228 94.541656 " transform="matrix(0.75,0,0,0.75,-4.829827,-9.894524)"/>
<path style="fill-rule:nonzero;fill:rgb(87.843137%,87.843137%,87.843137%);fill-opacity:1;stroke-width:2;stroke-linecap:round;stroke-linejoin:round;stroke:rgb(0%,0%,0%);stroke-opacity:1;stroke-miterlimit:10;" d="M 204.465812 185.166656 C 259.507478 185.166656 304.132478 229.786448 304.132478 284.828115 C 304.132478 339.869781 259.507478 384.489573 204.465812 384.489573 C 149.418937 384.489573 104.793937 339.869781 104.793937 284.828115 C 104.793937 229.786448 149.418937 185.166656 204.465812 185.166656 Z M 204.465812 185.166656 " transform="matrix(0.75,0,0,0.75,-4.829827,-9.894524)"/>
</g>
</svg>
