<?xml version="1.0" encoding="UTF-8" standalone="no"?>
<!-- Created with Inkscape (http://www.inkscape.org/) -->
<svg id="svg2" xmlns:rdf="http://www.w3.org/1999/02/22-rdf-syntax-ns#" xmlns="http://www.w3.org/2000/svg" viewBox="0 0 990 765" version="1.1" xmlns:cc="http://creativecommons.org/ns#" xmlns:dc="http://purl.org/dc/elements/1.1/">
	<metadata id="metadata7">
		<rdf:RDF>
			<cc:Work rdf:about="">
				<dc:format>image/svg+xml</dc:format>
				<dc:type rdf:resource="http://purl.org/dc/dcmitype/StillImage"/>
				<dc:title/>
			</cc:Work>
		</rdf:RDF>
	</metadata>
	<g id="layer1" transform="translate(0,-287.362)">
		<g id="g3113" transform="matrix(1.3010506,0,0,1.3010506,482.1089,-441.71899)">
			<g id="layer1-9" transform="matrix(0.50331337,-0.08895644,0.08895644,0.50331337,-53.015059,202.78839)">
				<g id="gFoot" stroke="#000" transform="translate(-54.666667,-22.666667)">
					<path id="pFoot" stroke-linejoin="miter" d="m155.04,912.64s34.183-39.027,17.198-59.41c-7.8171-9.3805-30.59-17.678-47.224-16.507-16.091,1.1325-39.033,7.6408-42.994,22.209-8.3564,30.74,10.911,64.627,17.979,96.816,3.8408,17.493-18.439,31.153-5.9317,53.823,11.466,20.783,49.176,29.422,59.41,0,6.2536-17.979-1.0811-22.243-3.4779-33.062-2.2157-10.002-9.994-29.062-9.994-29.062s30.669,37.891,19.726,62.123c-10.944,24.233-39.153,37.587-65.663,10.162-22.669-23.451,1.3416-39.128,0-60.191-1.436-22.546-32.05-79.734-16.416-106.31,15.634-26.578,50.512-24.677,75.044-19.543,33.613,7.0354,35.177,35.177,25.796,54.719-3.3996,7.0824-23.451,24.233-23.451,24.233z" stroke-linecap="butt" stroke-width="0.78170556px" fill="#000"/>
					<g id="gToes" stroke-dasharray="none" stroke-miterlimit="4" fill="none">
						<path id="pBigToe" style="marker-start:none;" d="m190,65.333c0,12.15-6.7157,22-15,22s-15-9.8497-15-22,6.7157-22,15-22,15,9.8497,15,22z" transform="matrix(0.98485997,0.17335179,-0.17335179,0.98485997,19.308489,712.3481)" stroke-width="4"/>
						<path id="pIndexToe" style="marker-start:none;" d="m190,65.333c0,12.15-6.7157,22-15,22s-15-9.8497-15-22,6.7157-22,15-22,15,9.8497,15,22z" transform="matrix(0.85934885,0.05303446,-0.05303446,0.85934885,0.37757827,737.60368)" stroke-width="4.35548258"/>
						<path id="pMidToe" style="marker-start:none;" d="m190,65.333c0,12.15-6.7157,22-15,22s-15-9.8497-15-22,6.7157-22,15-22,15,9.8497,15,22z" transform="matrix(0.74940897,-0.03241743,0.03241743,0.74940897,-16.526059,759.7405)" stroke-width="4.50095415"/>
						<path id="pRingToe" style="marker-start:none;" d="m190,65.333c0,12.15-6.7157,22-15,22s-15-9.8497-15-22,6.7157-22,15-22,15,9.8497,15,22z" transform="matrix(0.65603373,-0.11526702,0.11526702,0.65603373,-30.753323,789.00637)" stroke-width="4.68523788"/>
						<path id="pPinkyToe" style="marker-start:none;" d="m190,65.333c0,12.15-6.7157,22-15,22s-15-9.8497-15-22,6.7157-22,15-22,15,9.8497,15,22z" transform="matrix(0.53080858,-0.21124712,0.21124712,0.53080858,-33.642602,830.94676)" stroke-width="5.25118637"/>
					</g>
				</g>
			</g>
			<g id="g3077" transform="matrix(0.50334938,-0.08875242,0.08875242,0.50334938,-36.707939,502.74111)">
				<g id="g3079" transform="translate(-54.666667,-22.666667)" stroke="#000">
					<path id="path3081" stroke-linejoin="miter" d="m155.04,912.64s34.183-39.027,17.198-59.41c-7.8171-9.3805-30.59-17.678-47.224-16.507-16.091,1.1325-39.033,7.6408-42.994,22.209-8.3564,30.74,10.911,64.627,17.979,96.816,3.8408,17.493-18.439,31.153-5.9317,53.823,11.466,20.783,49.176,29.422,59.41,0,6.2536-17.979-1.0811-22.243-3.4779-33.062-2.2157-10.002-9.994-29.062-9.994-29.062s30.669,37.891,19.726,62.123c-10.944,24.233-39.153,37.587-65.663,10.162-22.669-23.451,1.3416-39.128,0-60.191-1.436-22.546-32.05-79.734-16.416-106.31,15.634-26.578,50.512-24.677,75.044-19.543,33.613,7.0354,35.177,35.177,25.796,54.719-3.3996,7.0824-23.451,24.233-23.451,24.233z" stroke-linecap="butt" stroke-width="0.78170556px" fill="#000"/>
					<g id="g3083" stroke-dasharray="none" stroke-miterlimit="4" fill="none">
						<path id="path3085" style="marker-start:none;" stroke-width="4" transform="matrix(0.98485997,0.17335179,-0.17335179,0.98485997,19.308489,712.3481)" d="m190,65.333c0,12.15-6.7157,22-15,22s-15-9.8497-15-22,6.7157-22,15-22,15,9.8497,15,22z"/>
						<path id="path3087" style="marker-start:none;" stroke-width="4.35548258" transform="matrix(0.85934885,0.05303446,-0.05303446,0.85934885,0.37757827,737.60368)" d="m190,65.333c0,12.15-6.7157,22-15,22s-15-9.8497-15-22,6.7157-22,15-22,15,9.8497,15,22z"/>
						<path id="path3089" style="marker-start:none;" stroke-width="4.50095415" transform="matrix(0.74940897,-0.03241743,0.03241743,0.74940897,-16.526059,759.7405)" d="m190,65.333c0,12.15-6.7157,22-15,22s-15-9.8497-15-22,6.7157-22,15-22,15,9.8497,15,22z"/>
						<path id="path3091" style="marker-start:none;" stroke-width="4.68523788" transform="matrix(0.65603373,-0.11526702,0.11526702,0.65603373,-30.753323,789.00637)" d="m190,65.333c0,12.15-6.7157,22-15,22s-15-9.8497-15-22,6.7157-22,15-22,15,9.8497,15,22z"/>
						<path id="path3093" style="marker-start:none;" stroke-width="5.25118637" transform="matrix(0.53080858,-0.21124712,0.21124712,0.53080858,-33.642602,830.94676)" d="m190,65.333c0,12.15-6.7157,22-15,22s-15-9.8497-15-22,6.7157-22,15-22,15,9.8497,15,22z"/>
					</g>
				</g>
			</g>
			<g id="g3095" transform="matrix(-0.50537951,-0.07634884,-0.07634884,0.50537951,237.15985,343.5566)">
				<g id="g3097" stroke="#000" transform="translate(-54.666667,-22.666667)">
					<path id="path3099" stroke-linejoin="miter" d="m184.82,925.05s34.183-39.027,17.198-59.41c-7.8171-9.3805-30.59-17.678-47.224-16.507-16.091,1.1325-39.033,7.6408-42.994,22.209-8.3564,30.74,10.911,64.627,17.979,96.816,3.8408,17.493-18.439,31.153-5.9317,53.823,11.466,20.783,49.176,29.422,59.41,0,6.2536-17.979-1.0811-22.243-3.4779-33.062-2.2157-10.002-9.994-29.062-9.994-29.062s30.669,37.891,19.726,62.123c-10.944,24.233-39.153,37.587-65.663,10.162-22.669-23.451,1.3416-39.128,0-60.191-1.436-22.546-32.05-79.734-16.416-106.31,15.634-26.578,50.512-24.677,75.044-19.543,33.613,7.0354,35.177,35.177,25.796,54.719-3.3996,7.0824-23.451,24.233-23.451,24.233z" stroke-linecap="butt" stroke-width="0.78170556px" fill="#000"/>
					<g id="g3101" stroke-dasharray="none" stroke-miterlimit="4" fill="none">
						<path id="path3103" d="m224.89,822.04c-2.1062,11.966-10.428,20.503-18.587,19.067-8.1589-1.4361-13.065-12.301-10.959-24.267,2.1063-11.966,10.428-20.503,18.587-19.067,8.1589,1.4361,13.065,12.301,10.959,24.267z" style="marker-start:none;" stroke-width="4"/>
						<path id="path3105" d="m189.97,816.24c-0.64437,10.441-6.9379,18.55-14.057,18.11-7.1191-0.43935-12.368-9.2598-11.723-19.701,0.64439-10.441,6.9379-18.55,14.057-18.11,7.1191,0.43935,12.368,9.2598,11.723,19.701z" style="marker-start:none;" stroke-width="3.75"/>
						<path id="path3107" d="m157.76,814.96c0.39387,9.1053-4.3196,16.705-10.528,16.973-6.2083,0.26856-11.56-6.8952-11.954-16.001-0.39388-9.1055,4.3196-16.705,10.528-16.973,6.2083-0.26856,11.56,6.8952,11.954,16.001z" style="marker-start:none;" stroke-width="3.37620974"/>
						<path id="path3109" d="m131.21,822.38c1.4005,7.9708-1.8698,15.207-7.3046,16.162-5.4348,0.95491-10.976-4.7327-12.376-12.704-1.4005-7.971,1.8698-15.207,7.3046-16.162,5.4348-0.95491,10.976,4.7327,12.376,12.704z" style="marker-start:none;" stroke-width="3.12075782"/>
						<path id="path3111" d="m110.8,837.9c2.5666,6.4493,1.0827,13.096-3.3147,14.846s-10.043-2.0596-12.61-8.5091c-2.5667-6.4495-1.0827-13.096,3.3147-14.846s10.043,2.0596,12.61,8.5091z" style="marker-start:none;" stroke-width="3"/>
					</g>
				</g>
			</g>
		</g>
		<flowRoot id="flowRoot3142" style="writing-mode:lr-tb;letter-spacing:0px;text-anchor:middle;word-spacing:0px;text-align:center;" line-height="160.00000238%" font-weight="normal" xml:space="preserve" font-size="47.99999619px" transform="matrix(1.2293577,0,0,1.857881,490.34637,183.17746)" font-stretch="normal" font-variant="normal" font-style="normal" font-family="Segoe Script" fill="#000000"><flowRegion id="flowRegion3144"><rect id="rect3146" style="text-align:center;" ry="0" height="269.36" width="294.13" y="102.67" x="113.93"/></flowRegion><flowPara id="flowPara3162">Following</flowPara><flowPara id="flowPara3217">In HIS</flowPara><flowPara id="flowPara3172">Foot-steps</flowPara></flowRoot>
		<flowRoot id="flowRoot3184" style="writing-mode:lr-tb;letter-spacing:0px;text-anchor:middle;word-spacing:0px;text-align:center;" line-height="110.00000238%" font-weight="normal" xml:space="preserve" font-size="32px" transform="matrix(1.2845646,0,0,1.2845646,431.46266,485.05513)" font-stretch="normal" font-variant="normal" font-style="normal" font-family="Segoe Script" fill="#000000"><flowRegion id="flowRegion3186"><rect id="rect3188" style="text-align:center;" height="77.847" width="389.24" y="363.79" x="47.127"/></flowRegion><flowPara id="flowPara3192" style="writing-mode:lr-tb;text-anchor:middle;text-align:center;" font-weight="normal" font-size="18.6833725px" line-height="110.00000238%" font-stretch="normal" font-variant="normal" font-style="normal" font-family="Segoe Script">The first of Many for</flowPara><flowPara id="flowPara3194"/><flowPara id="flowPara3196">IAN RATLIFF</flowPara></flowRoot>
	</g>
</svg>
