<?xml version="1.0" encoding="UTF-8" standalone="no"?>
<svg id="svg2" xmlns:rdf="http://www.w3.org/1999/02/22-rdf-syntax-ns#" xmlns="http://www.w3.org/2000/svg" viewBox="0 0 50 50" height="100%" width="100%" version="1.1" xmlns:cc="http://creativecommons.org/ns#" xmlns:xlink="http://www.w3.org/1999/xlink" xmlns:dc="http://purl.org/dc/elements/1.1/">
	<defs id="defs2999">
		<linearGradient id="lgBookSpine" y2="27.378" gradientUnits="userSpaceOnUse" x2="18.203" gradientTransform="matrix(1.1463415,0,0,1,-4.1773505,0)" y1="27.378" x1="14.051">
			<stop id="stop0" stop-color="#808080" offset="0"/>
			<stop id="stop1" stop-color="#FFF" stop-opacity="0" offset="0.08"/>
			<stop id="stop2" stop-color="#EEE" offset="0.8162"/>
			<stop id="stop3775" stop-color="#FFF" stop-opacity="0" offset="1"/>
		</linearGradient>
	</defs>
	<title id="titleBook">Book</title>
	<metadata id="metadata7">
		<rdf:RDF>
			<cc:Work rdf:about="">
				<dc:format>image/svg+xml</dc:format>
				<dc:type rdf:resource="http://purl.org/dc/dcmitype/StillImage"/>
				<dc:title>Book</dc:title>
				<cc:license rdf:resource="http://creativecommons.org/licenses/by/3.0/"/>
				<dc:creator>
					<cc:Agent>
						<dc:title>Trevor Ratliff</dc:title>
					</cc:Agent>
				</dc:creator>
				<dc:date>2014-01-10</dc:date>
			</cc:Work>
			<cc:License rdf:about="http://creativecommons.org/licenses/by/3.0/">
				<cc:permits rdf:resource="http://creativecommons.org/ns#Reproduction"/>
				<cc:permits rdf:resource="http://creativecommons.org/ns#Distribution"/>
				<cc:requires rdf:resource="http://creativecommons.org/ns#Notice"/>
				<cc:requires rdf:resource="http://creativecommons.org/ns#Attribution"/>
				<cc:permits rdf:resource="http://creativecommons.org/ns#DerivativeWorks"/>
			</cc:License>
		</rdf:RDF>
	</metadata>
	<rect id="rectSpineCrease" height="36.252" width="4.4027" y="8.5961" x="12.145" fill="url(#lgBookSpine)"/>
	<path id="pathBook" d="M8,10.5v29.5c0.28102,3.2786-1.0814,5.6112,4,6,0,0,0-1.5,2-1.5s2,1.5,2,1.5h17v-36h-17s0-1.5-2-1.5-2,1.5-2,1.5l-1.218-0.0937s-5.0712-0.54824-1.4708-4.5925c1.5658-1.7588,4.6888-1.3138,4.6888-1.3138h1s0,1.75,2,1.75,2-1.75,2-1.75h18v36h-2.75" stroke="#000" stroke-linecap="round" stroke-width="1" fill="none"/>
</svg>
