<?xml version="1.0" encoding="UTF-8" standalone="no"?>
<!-- Created with Inkscape (http://www.inkscape.org/) -->
<svg id="topLeft" xmlns:rdf="http://www.w3.org/1999/02/22-rdf-syntax-ns#" xmlns="http://www.w3.org/2000/svg" viewBox="0 0 100 100" version="1.1" xmlns:cc="http://creativecommons.org/ns#" xmlns:dc="http://purl.org/dc/elements/1.1/">
	<metadata id="metadata7">
		<rdf:RDF>
			<cc:Work rdf:about="">
				<dc:format>image/svg+xml</dc:format>
				<dc:type rdf:resource="http://purl.org/dc/dcmitype/StillImage"/>
				<dc:title/>
			</cc:Work>
		</rdf:RDF>
	</metadata>
	<g id="gBackground" transform="matrix(0.87804878,0,0,0.87804878,7.8658537,7.8658537)">
		<rect id="rBlackBack" stroke-dasharray="none" transform="scale(1,-1)" height="39.931" width="39.931" stroke="#000" stroke-linecap="square" stroke-miterlimit="4" y="-31.493" x="64.554" stroke-width="0.99994" fill="#000"/>
		<rect id="rWhiteBack" transform="scale(1,-1)" height="39.931" width="39.931" y="-30.923" x="65.124" fill="#FFF"/>
	</g>
	<g id="gCurls" stroke-miterlimit="4">
		<path id="pCornerYellow" stroke-linejoin="miter" d="m5.1085,79.957c0,5,10,15,15,15l5-10c10,5,30-5,25-20l15-5c-15-5-20-10-25-25l-5,15c-15-5-25,15-20,25z" stroke="#000" stroke-linecap="butt" stroke-dasharray="none" stroke-width="0.5" fill="#f6d100"/>
		<path id="pCornerBlack" stroke-linejoin="miter" d="m11.916,79.901c0,3.8814,4.3665,8.2479,8.2479,8.2479l2.911-5.822c7.7627,3.8814,24.258-5.822,20.377-17.466l11.644-3.881c-11.644-3.882-12.129-4.367-16.01-16.011l-3.882,11.644c-11.644-3.881-21.347,12.615-17.466,20.377z" stroke="#000" stroke-linecap="butt" stroke-dasharray="none" stroke-width="0.38813522" fill="#000"/>
		<path id="pCornerPurple" stroke-linejoin="miter" d="m20.603,73.913c0,2.6119,2.9383,5.5502,5.5502,5.5502l1.9589-3.9178c5.2237,2.6119,14.324-1.9178,11.712-9.7534l5.2844-2.1119c-7.835-2.612-5.86-0.887-8.472-8.723l-2.3619,5.2844c-7.8356-2.6119-12.365,6.4886-9.7534,11.712z" stroke="#000" stroke-linecap="butt" stroke-dasharray="none" stroke-width="0.26118645" fill="#8722a0"/>
		<g id="gCurlsGreen" stroke-linejoin="round" transform="matrix(1,0,0,-1,0.10854745,99.956988)" stroke="#000" stroke-linecap="round" stroke-dasharray="none">
			<path id="path3004" d="m63.811,55.902s13.281,8.7746,20.824,2.3876c7.5199-6.367,8.0959-19.917,6.9415-29.447-0.77128-6.367-3.8564-10.744-7.7128-13.53-3.8564-2.7856-9.8292-0.93165-12.34,0.79587-2.3138,1.5917-5.3989,6.168-5.3989,11.938,0,6.367,1.5426,12.734,5.3989,16.713,3.0851,3.1835,6.5558,2.9845,8.484,0.79587s3.0851-5.5711,3.0851-9.5505-2.121-7.9587-3.8564-7.9587-3.9997,2.1378-3.8564,3.9794c0.085,1.09,2.62,1.974,2.62,1.974s-0.05409-3,1-3c1,0,1.7541,4.1179,1,6-0.61986,1.5471-1.205,3.2183-4,3-1.8133-0.13298-3.6475-4.3358-4-7-0.58357-4.4106-1.0639-10.18,3.3804-12.912,1.9016-1.111,4.7208-1.2244,6.5558,0,2.3675,1.5796,3.4877,5.1556,4.242,7.9587,1.1603,4.312,1.2328,8.8811,0.77128,13.331-0.41959,4.0459-2.3138,8.7546-3.8564,10.545-1.8242,2.1176-4.9708,4.1279-7.7128,3.9794-2.8704-0.15546-7.7128-3.9794-7.7128-3.9794z" stroke-width="0.39173882999999998" fill="#8722a0"/>
			<path id="path3090" d="m60,60s17.219,11.025,27,3c9.75-8,10.497-25.026,9-37-1-8-5-13.5-10-17s-12.744-1.1706-16,1c-3,2-7,7.75-7,15,0,8,2,16,7,21,4,4,8.5,3.75,11,1s4-7,4-12-2.75-10-5-10-5,0-5,5,3.25,5,3.25,5-1.4485-2.6172-1.25-4c0.12807-0.89224,0.59879-2.2678,1.5-2.25,1.7576,0.03468,2.4063,2.776,2.75,4.5,0.52768,2.6469,0.14032,5.6866-1.25,8-1.0732,1.7857-2.9219,1.8977-5,1.75-2.3511-0.16709-5.6661-6.8367-6-11-0.48039-5.99,0.2378-13.567,6-17,2.4656-1.396,6.1207-1.5384,8.5,0,3.0695,1.9847,4.522,6.478,5.5,10,1.5044,5.418,1.5983,11.159,1,16.75-0.54402,5.0836-3,11-5,13.25-2.3651,2.6608-6.4449,5.1866-10,5-3.7217-0.19534-10-5-10-5z" stroke-width="0.50000000000000000" fill="#f6d100"/>
		</g>
		<g id="gCurlsBlack" transform="matrix(0,-1,1,0,0.07026088,100.04339)">
			<path id="path3780" d="m63.811,55.902s13.281,8.7746,20.824,2.3876c7.5199-6.367,8.0959-19.917,6.9415-29.447-0.77128-6.367-3.8564-10.744-7.7128-13.53-3.8564-2.7856-9.8292-0.93165-12.34,0.79587-2.3138,1.5917-5.3989,6.168-5.3989,11.938,0,6.367,1.5426,12.734,5.3989,16.713,3.0851,3.1835,6.5558,2.9845,8.484,0.79587s3.0851-5.5711,3.0851-9.5505-2.121-7.9587-3.8564-7.9587-3.9997,2.1378-3.8564,3.9794c0.085,1.09,2.62,1.974,2.62,1.974s-0.05409-3,1-3c1,0,1.7541,4.1179,1,6-0.61986,1.5471-1.205,3.2183-4,3-1.8133-0.13298-3.6475-4.3358-4-7-0.58357-4.4106-1.0639-10.18,3.3804-12.912,1.9016-1.111,4.7208-1.2244,6.5558,0,2.3675,1.5796,3.4877,5.1556,4.242,7.9587,1.1603,4.312,1.2328,8.8811,0.77128,13.331-0.41959,4.0459-2.3138,8.7546-3.8564,10.545-1.8242,2.1176-4.9708,4.1279-7.7128,3.9794-2.8704-0.15546-7.7128-3.9794-7.7128-3.9794z" stroke-opacity="0" fill-opacity="0"/>
			<path id="path3782" stroke-linejoin="round" d="m60,60s17.219,11.025,27,3c9.75-8,10.497-25.026,9-37-1-8-5-13.5-10-17s-12.744-1.1706-16,1c-3,2-7,7.75-7,15,0,8,2,16,7,21,4,4,8.5,3.75,11,1s4-7,4-12-2.75-10-5-10-5,0-5,5,3.25,5,3.25,5-1.4485-2.6172-1.25-4c0.12807-0.89224,0.59879-2.2678,1.5-2.25,1.7576,0.03468,2.4063,2.776,2.75,4.5,0.52768,2.6469,0.14032,5.6866-1.25,8-1.0732,1.7857-2.9219,1.8977-5,1.75-2.3511-0.16709-5.6661-6.8367-6-11-0.48039-5.99,0.2378-13.567,6-17,2.4656-1.396,6.1207-1.5384,8.5,0,3.0695,1.9847,4.522,6.478,5.5,10,1.5044,5.418,1.5983,11.159,1,16.75-0.54402,5.0836-3,11-5,13.25-2.3651,2.6608-6.4449,5.1866-10,5-3.7217-0.19534-10-5-10-5z" stroke="#000" stroke-linecap="round" stroke-dasharray="none" stroke-width="0.50000000000000000" fill="#f6d100"/>
		</g>
		<path id="pCurlCenter" stroke-linejoin="miter" d="m50.109,49.957,5-15,10,10z" stroke="#000" stroke-linecap="butt" stroke-dasharray="none" stroke-width="0.5" fill="#f6ca00"/>
		<rect id="rCurlCenterDecor" stroke-dasharray="none" transform="matrix(0.70710678,0.70710678,0.70710678,-0.70710678,0,0)" height="3.6935" width="14.774" stroke="#000" stroke-linecap="square" y="7.8064" x="63.193" stroke-width="0.5" fill="#f6ca00"/>
	</g>
</svg>
