<?xml version="1.0" encoding="UTF-8" standalone="no"?>
<!DOCTYPE svg PUBLIC "-//W3C//DTD SVG 20010904//EN"
              "http://www.w3.org/TR/2001/REC-SVG-20010904/DTD/svg10.dtd">

<svg xmlns="http://www.w3.org/2000/svg"
     width="0.166667in" height="0.166667in"
     viewBox="0 0 50 50">
  <path id="Unnamed #2"
        fill="none" stroke="black" stroke-width="1"
        d="M 8.00,10.00
           C 8.00,10.00 8.00,34.75 8.00,40.00
             8.00,46.00 10.00,46.00 12.00,46.00
             12.00,46.00 14.00,46.00 14.00,46.00
             14.00,46.00 14.00,44.50 16.00,44.50
             18.00,44.50 18.00,46.00 18.00,46.00
             18.00,46.00 33.00,46.00 33.00,46.00
             33.00,46.00 33.00,10.00 33.00,10.00
             33.00,10.00 18.00,10.00 18.00,10.00
             18.00,10.00 18.00,8.50 16.00,8.50
             14.00,8.50 14.00,10.00 14.00,10.00
             14.00,10.00 12.00,10.00 12.00,10.00
             10.13,10.00 8.00,10.00 8.00,7.00
             8.00,4.00 10.13,4.00 12.00,4.00
             12.00,4.00 15.00,4.00 15.00,4.00
             15.00,4.00 15.00,5.75 17.00,5.75
             19.00,5.75 19.00,4.00 19.00,4.00
             19.00,4.00 35.00,4.00 35.00,4.00
             35.00,4.00 35.00,40.00 35.00,40.00
             35.00,40.00 33.75,40.00 33.75,40.00" />
</svg>
