<!--	Created with Inkscape (http://www.inkscape.org/) --><svg id="svg2" xmlns:rdf="http://www.w3.org/1999/02/22-rdf-syntax-ns#" xmlns="http://www.w3.org/2000/svg" viewBox="0 0 32 32" version="1.1" xmlns:cc="http://creativecommons.org/ns#" xmlns:dc="http://purl.org/dc/elements/1.1/">	<metadata id="metadata">		<rdf:RDF>			<cc:Work rdf:about="">				<dc:format>image/svg+xml</dc:format>				<dc:type rdf:resource="http://purl.org/dc/dcmitype/StillImage"/>				<dc:title>add journal button</dc:title>				<cc:license rdf:resource="http://creativecommons.org/licenses/by-sa/3.0/"/>				<dc:contributor>					<cc:Agent>						<dc:title>Trevor Ratliff</dc:title>					</cc:Agent>				</dc:contributor>			</cc:Work>			<cc:License rdf:about="http://creativecommons.org/licenses/by-sa/3.0/">				<cc:permits rdf:resource="http://creativecommons.org/ns#Reproduction"/>				<cc:permits rdf:resource="http://creativecommons.org/ns#Distribution"/>				<cc:requires rdf:resource="http://creativecommons.org/ns#Notice"/>				<cc:requires rdf:resource="http://creativecommons.org/ns#Attribution"/>				<cc:permits rdf:resource="http://creativecommons.org/ns#DerivativeWorks"/>				<cc:requires rdf:resource="http://creativecommons.org/ns#ShareAlike"/>			</cc:License>		</rdf:RDF>	</metadata>	<g id="journal">		<path id="pFrontBottom" d="M1,13.311,1,28c0,2,0,3,3,3h14v-9h-3v6h-11v-14.689c0-2.3565-3-2.3565-3,0z"></path>		<path id="pTop" d="M15,13,15,9,5,9c-8,0-2-8,5-8h14v6h-3v-3h-11c-3,0-6,2-4.3102,2h12.31v7z"></path>		<path id="pPlus" d="m30,16,0,3-6-0,0,6-3,0,0-6-6,0,0-3,6,0,0-6,3,0,0,6z"></path>	</g></svg>