<?xml version="1.0" encoding="UTF-8" standalone="no"?>
<!-- Created with Inkscape (http://www.inkscape.org/) -->
<svg id="LogIcon" stroke-width="0.01" xmlns:rdf="http://www.w3.org/1999/02/22-rdf-syntax-ns#" xmlns="http://www.w3.org/2000/svg" viewBox="0 0 100 100" version="1.1" xmlns:cc="http://creativecommons.org/ns#" xmlns:dc="http://purl.org/dc/elements/1.1/">
	<title id="LogIconTitle">Log</title>
	<metadata id="LogIconMetadata">
		<rdf:RDF>
			<cc:Work rdf:about="">
				<dc:format>image/svg+xml</dc:format>
				<dc:type rdf:resource="http://purl.org/dc/dcmitype/StillImage"/>
				<dc:title>Log</dc:title>
				<dc:creator>
					<cc:Agent>
						<dc:title>Trevor Ratliff</dc:title>
					</cc:Agent>
				</dc:creator>
				<dc:date>2014-02-12</dc:date>
				<cc:license rdf:resource="http://creativecommons.org/licenses/by-sa/3.0/"/>
			</cc:Work>
			<cc:License rdf:about="http://creativecommons.org/licenses/by-sa/3.0/">
				<cc:permits rdf:resource="http://creativecommons.org/ns#Reproduction"/>
				<cc:permits rdf:resource="http://creativecommons.org/ns#Distribution"/>
				<cc:requires rdf:resource="http://creativecommons.org/ns#Notice"/>
				<cc:requires rdf:resource="http://creativecommons.org/ns#Attribution"/>
				<cc:permits rdf:resource="http://creativecommons.org/ns#DerivativeWorks"/>
				<cc:requires rdf:resource="http://creativecommons.org/ns#ShareAlike"/>
			</cc:License>
		</rdf:RDF>
	</metadata>
	<g id="gLog" stroke-dasharray="none" stroke-miterlimit="4">
		<path id="pLog" stroke-linejoin="miter" d="M45.483,82.85c-8.254-4.168,12.357,19.75,12.111,2.726-0.126-8.718-22.308-23.7-23.71-10.692-1.901,17.629,19.358,29.856,28.142,20.34,16.862-18.276-31.789-46.844-52.67-54.838l32.904-33.189c26.405,18.956,54.983,32.461,52.093,48.206-0.851,4.64-25.086,27.158-25.086,27.158,0.25014,1.6728,0.80943,3.1909,0.05695,5.365,0,0,26.929-26.708,27.969-29.553,7.627-20.868-29.577-37.174-55.033-55.884l-40.885,39.886c25.65,8.447,71.801,37.48,58.704,51.325-6.111,6.46-22.734-3.783-22.829-15.45-0.09-11.12,14.649,1.248,16.35,6.341,3.228,9.669-10.908-4.594-8.117-1.741z" stroke-linecap="butt"/>
		<g id="gWords" stroke-linejoin="round" stroke-linecap="round">
			<path id="pWords_1" d="m51.188,21.844c-2.1113,0.01019-3.4929,2.0227-4.1176,3.8271-0.48357,1.5071-0.90213,3.0932-2.0241,4.278-1.071,1.3441-2.5587,2.308-3.6668,3.5917-0.1424,1.0644-2.1091,1.0144-2.8458,1.8-1.1368,0.92173-2.5681,1.2106-3.9479,1.5531-1.2338,0.24686-2.1608,1.1954-2.4557,2.4053-0.82659,2.0006-2.4148,3.6704-4.4002,4.5308-0.97391,0.97699,1.5886-0.83206,1.0832,0.04524,2.4745-1.2213,4.8864-2.8909,6.1585-5.4189,1.1513-0.40724,2.5123-0.67421,3.3322-1.679,0.60103-0.99417,2.0129-1.0091,2.8531-1.7771,0.45664-0.96617,1.6258-1.3798,2.3922-2.1699,1.4906-1.4213,3.2114-2.6018,4.5707-4.1561,1.0091-1.0555,1.1041-2.551,1.5952-3.8496,0.37571-1.5076,1.7403-0.34634,2.7131-0.36095,1.5046,0.08172,3.1267-0.22799,4.3154-1.1959-0.85301,0.34479-0.96383-0.33917-1.4304-0.67379-1.396-0.1219-2.7097-0.76293-4.125-0.75z"/>
			<path id="pWords_2" d="m44.436,53.916c0.95624-1.6505,2.5436-3.2873,4.556-3.3938,0.49846-0.1164,0.46149-0.019,0.97838-0.08428-0.09642-1.7111,1.0071-1.3956,1.6342-2.0925,0.45085-0.50488,0.56702-0.24008,1.329-0.22739-0.79326-0.72263-0.96952-2.2948-0.24683-3.1374,1.4778-1.1673,3.4256-1.6565,5.2838-1.3985,0.48677-0.05127,1.0859,0.17335,1.7888,0.04605,0.53052-0.91164,1.1285-1.3934,1.9328-2.0222,0.92165-0.74864,1.7531-1.5758,3.0441-1.7618-0.09947-1.9955,1.1267-1.9249,1.5905-2.8613,1.24-1.2899,2.6523-2.7934,4.5489-2.9058-0.7606-0.04147-1.2651-0.51322-0.25762-0.70309,0.67519-0.16456,1.8263-1.3513,2.3348-0.73477-0.78897,1.8328-2.5246,3.1183-4.2755,3.9708-0.57416,0.42415-2.5802,0.14972-1.3902,1.2177,0.75088,1.0659-1.0001,1.9465-1.6196,2.6709-1.0068,0.85155-2.2443,1.3344-3.4205,1.8825-1.0272,0.92187-1.5877,2.4298-3.0861,2.7391-1.4493,0.55654-2.0149,0.73996-3.519,0.11468-0.83032,0.76086-0.43959,0.22712-0.98008,1.1122-0.17745,1.668-0.96486,2.4667-2.4206,2.9461-0.55724,1.2319-1.5282,2.2026-2.8925,2.5509-1.6889,0.59907-3.0507,1.8791-4.758,2.4288-0.2595,0.09659-0.29152-0.21633-0.15491-0.35702z"/>
			<path id="pWords_3" d="m62.348,68.939c1.1646-0.97507,1.1129-3.0253-0.1012-3.9389,0.43841-1.5128,2.3162-2.3396,3.7513-1.7444,0.8921-0.13955,1.8521,0.06069,2.3982-0.82491,1.8065-1.199,3.0003-3.1337,3.6733-5.1616,0.90021-1.1595,0.85736-2.6416,0.81335-4.0095,0.3212-1.475,2.0896-1.762,3.2909-1.2167,0.99473,0.62353,2.3477,0.7925,3.2083,1.0667-0.67174-0.58139-1.1202-1.606-0.21221-2.0051,0.72779-0.66446,2.5516-1.9803,3.1465-2.7889,0.84489-0.86113,2.2675-2.7061,3.5135-2.861,0.87251,0.50711-1.3073,2.3371-1.5872,2.964-0.89134,1.0445-2.6807,3.1693-2.6159,4.613-0.25805,1.6697-2.272,2.0304-3.6707,1.8133-1.1677-0.09506-0.83649,0.88002-2.2276-0.0079-0.26066-0.48108-0.62318-0.05457-0.62318-0.05457-0.26689,1.298-0.28331,1.5253-0.71411,2.7607-0.74195,1.6627-2.0647,2.9577-3.0822,4.4474-1.1769,1.1313-2.6954,1.8568-3.9456,2.912-0.80892,0.3262-0.71245,0.43901-1.1512,1.3311-0.4603,1.4682-1.9673,2.2013-3.3591,2.5338-0.16889,0.05553-0.33758,0.11177-0.50501,0.1716z"/>
		</g>
	</g>
</svg>
